<svg xmlns="http://www.w3.org/2000/svg" width="120" height="120" viewBox="0 0 120 120">
    <g fill="none" fill-rule="evenodd">
        <g>
            <g>
                <g>
                    <g>
                        <path fill="#DEE1EF" d="M16.806 0h70.492c2.153 0 3.899 1.745 3.899 3.899 0 .065-.002.131-.005.197l-2.683 52.908c-.105 2.074-1.817 3.702-3.893 3.702H14.124c-2.153 0-3.899-1.746-3.899-3.899 0-.066.002-.132.005-.197L12.913 3.7C13.018 1.627 14.73 0 16.806 0z" transform="translate(-128 -144) translate(16 144) translate(112) translate(14 38)"/>
                        <path fill="#EEEFF6" d="M3.225 5.57h29.456c.973 0 1.833.63 2.125 1.559l2.835 9.017H78.9c1.658 0 3.065 1.216 3.306 2.856L87.76 56.88c.268 1.826-.995 3.523-2.82 3.791-.161.024-.324.036-.486.036H11.012c-1.657 0-3.064-1.215-3.306-2.855L.47 8.76c-.224-1.521.828-2.937 2.35-3.16.134-.02.27-.03.405-.03z" transform="translate(-128 -144) translate(16 144) translate(112) translate(14 38)"/>
                    </g>
                    <path fill="#C1C8DB" d="M32.414 61.293c.39-.39 1.024-.39 1.414 0l2.829 2.828 2.828-2.828c.39-.39 1.024-.39 1.414 0l2.122 2.121c.39.39.39 1.024 0 1.414l-2.829 2.829 2.829 2.828c.39.39.39 1.024 0 1.414l-2.122 2.122c-.39.39-1.023.39-1.414 0l-2.828-2.829-2.829 2.829c-.39.39-1.023.39-1.414 0l-2.121-2.122c-.39-.39-.39-1.023 0-1.414l2.828-2.828-2.828-2.829c-.39-.39-.39-1.023 0-1.414l2.121-2.121zM71.414 61.293c.39-.39 1.024-.39 1.414 0l2.829 2.828 2.828-2.828c.39-.39 1.024-.39 1.414 0l2.122 2.121c.39.39.39 1.024 0 1.414l-2.829 2.829 2.829 2.828c.39.39.39 1.024 0 1.414l-2.122 2.122c-.39.39-1.023.39-1.414 0l-2.828-2.829-2.829 2.829c-.39.39-1.023.39-1.414 0l-2.121-2.122c-.39-.39-.39-1.023 0-1.414l2.828-2.828-2.828-2.829c-.39-.39-.39-1.023 0-1.414l2.121-2.121zM57.042 80c6.8 0 12.685 2.483 17.48 7.372 1.161 1.183 1.143 3.083-.04 4.243-1.183 1.16-3.082 1.142-4.242-.04C66.57 87.831 62.227 86 57.042 86c-5.067 0-8.733 1.729-11.308 5.245-.978 1.337-2.856 1.628-4.192.649-1.337-.979-1.628-2.856-.649-4.193C44.637 82.587 50.123 80 57.042 80z" transform="translate(-128 -144) translate(16 144) translate(112)"/>
                    <g>
                        <path fill="#EEEFF6" fill-rule="nonzero" d="M81.784 13.051l-1.58-.861c-.143 0-.143-.144-.287-.288l-.861-1.579c-.287-.43-.861-.43-1.005 0l-.861 1.58c0 .143-.144.143-.288.287l-1.579.861c-.43.287-.43.861 0 1.005l1.58.861c.143 0 .143.144.287.288l.861 1.579c.287.43.861.43 1.005 0l.861-1.58c0-.143.144-.143.288-.287l1.579-.861c.43-.287.43-.861 0-1.005" transform="translate(-128 -144) translate(16 144) translate(112) translate(10 12)"/>
                        <path fill="#DEE1EF" d="M101.176 16.577l-2.369-1.293c-.215 0-.215-.215-.43-.43l-1.293-2.37c-.43-.646-1.292-.646-1.507 0l-1.293 2.37c0 .215-.215.215-.43.43l-2.37 1.293c-.646.43-.646 1.292 0 1.507l2.37 1.292c.215 0 .215.216.43.431l1.293 2.369c.43.646 1.292.646 1.507 0l1.292-2.369c0-.215.216-.215.431-.43l2.369-1.293c.646-.43.646-1.292 0-1.507" transform="translate(-128 -144) translate(16 144) translate(112) translate(10 12)"/>
                        <path fill="#EEEFF6" fill-rule="nonzero" d="M5.088 82.288l-1.185-.646c-.107 0-.107-.108-.215-.215l-.646-1.185c-.215-.323-.646-.323-.754 0l-.646 1.185c0 .107-.108.107-.215.215l-1.185.646c-.323.216-.323.646 0 .754l1.185.646c.107 0 .107.108.215.215l.646 1.185c.216.323.646.323.754 0l.646-1.185c0-.107.108-.107.215-.215l1.185-.646c.323-.215.323-.646 0-.754" transform="translate(-128 -144) translate(16 144) translate(112) translate(10 12)"/>
                        <path fill="#EEEFF6" d="M19.59 3.864l-2-1.091c-.18 0-.18-.182-.363-.364l-1.09-2c-.364-.545-1.092-.545-1.273 0l-1.091 2c0 .182-.182.182-.364.364l-2 1.09c-.545.364-.545 1.092 0 1.273l2 1.091c.182 0 .182.182.364.364l1.09 2c.364.545 1.092.545 1.273 0l1.091-2c0-.182.182-.182.364-.364l2-1.09c.545-.364.545-1.092 0-1.273" transform="translate(-128 -144) translate(16 144) translate(112) translate(10 12)"/>
                    </g>
                </g>
            </g>
        </g>
    </g>
</svg>
